<?xml version="1.0" standalone="no"?>
<!DOCTYPE svg PUBLIC "-//W3C//DTD SVG 20010904//EN"
 "http://www.w3.org/TR/2001/REC-SVG-20010904/DTD/svg10.dtd">
<svg version="1.0" xmlns="http://www.w3.org/2000/svg"
 width="512.000000pt" height="512.000000pt" viewBox="0 0 512.000000 512.000000"
 preserveAspectRatio="xMidYMid meet">
<metadata>
Created by potrace 1.14, written by Peter Selinger 2001-2017
</metadata>
<g transform="translate(0.000000,512.000000) scale(0.100000,-0.100000)"
fill="#000000" stroke="none">
<path d="M2727 4255 c-113 -18 -270 -61 -327 -88 -30 -15 -48 -31 -54 -50 -18
-51 9 -69 302 -204 l272 -126 0 -257 0 -257 -247 -194 c-136 -107 -276 -217
-313 -245 l-65 -52 -294 93 c-317 100 -335 102 -360 49 -32 -72 -17 -81 318
-187 l294 -92 124 -370 c68 -203 121 -375 119 -381 -2 -6 -63 -86 -135 -178
-77 -99 -131 -177 -131 -190 0 -53 62 -90 105 -62 12 8 80 89 151 180 l129
166 411 0 412 0 117 -146 116 -145 -121 -225 c-67 -123 -131 -229 -142 -235
-34 -18 -219 -50 -332 -56 -97 -6 -113 -9 -133 -29 -29 -29 -29 -68 -2 -95 21
-21 28 -22 158 -16 674 30 1277 490 1510 1151 80 226 110 531 77 769 -103 732
-632 1303 -1351 1457 -131 29 -473 37 -608 15z m964 -288 c200 -102 359 -227
497 -391 98 -117 94 -86 49 -405 l-32 -224 -218 -73 -219 -73 -354 236 -354
236 2 260 3 260 245 113 c135 63 252 114 261 114 9 0 63 -24 120 -53z m-28
-1267 c4 -4 -49 -174 -119 -379 l-127 -371 -391 2 -391 3 -121 361 -122 361
300 236 300 236 331 -221 c183 -121 336 -224 340 -228z m749 -25 l148 -130 -6
-85 c-12 -178 -53 -348 -123 -509 -36 -85 -104 -212 -136 -254 -11 -15 -62
-26 -262 -57 -136 -21 -248 -38 -249 -37 0 1 -53 68 -117 148 l-117 146 131
385 131 384 212 71 c116 40 217 71 225 70 8 -1 81 -60 163 -132z"/>
<path d="M1732 4200 c-56 -23 -49 -109 10 -129 45 -16 356 -14 388 2 54 27 57
102 4 126 -30 13 -368 14 -402 1z"/>
<path d="M960 3910 c-27 -27 -25 -66 5 -95 l24 -25 501 0 501 0 24 25 c30 29
32 68 5 95 -19 19 -33 20 -530 20 -497 0 -511 -1 -530 -20z"/>
<path d="M622 3637 c-28 -30 -28 -68 1 -95 23 -21 31 -22 255 -22 219 0 233 1
252 20 11 11 20 33 20 50 0 17 -9 39 -20 50 -19 19 -33 20 -253 20 -231 0
-234 0 -255 -23z"/>
<path d="M1371 3634 c-12 -15 -21 -34 -21 -44 0 -10 9 -29 21 -44 l20 -26 440
0 c426 0 440 1 459 20 11 11 20 33 20 50 0 17 -9 39 -20 50 -19 19 -33 20
-459 20 l-440 0 -20 -26z"/>
<path d="M1965 3378 c-62 -36 -56 -113 12 -139 28 -10 77 10 87 36 26 68 -41
137 -99 103z"/>
<path d="M2266 3369 c-30 -24 -34 -63 -10 -97 14 -20 23 -22 119 -22 101 0
104 1 125 27 25 32 20 69 -12 96 -32 27 -186 25 -222 -4z"/>
<path d="M762 2824 c-29 -20 -30 -76 -2 -104 17 -17 33 -20 114 -20 109 0 139
15 139 68 0 59 -23 72 -132 72 -71 0 -102 -4 -119 -16z"/>
<path d="M1135 2364 c-59 -17 -75 -86 -29 -123 25 -20 39 -21 286 -21 l259 0
24 25 c14 13 25 31 25 39 0 24 -21 64 -38 71 -20 8 -502 16 -527 9z"/>
<path d="M1871 2334 c-28 -35 -26 -69 4 -99 30 -30 64 -32 99 -4 33 26 36 79
6 109 -30 30 -83 27 -109 -6z"/>
<path d="M550 1998 c-27 -29 -25 -64 5 -93 l24 -25 741 0 741 0 24 25 c30 30
31 54 4 89 l-20 26 -749 0 -749 0 -21 -22z"/>
<path d="M1172 1664 c-16 -11 -22 -25 -22 -54 0 -72 -12 -70 481 -70 l438 0
20 26 c26 34 26 54 0 88 l-20 26 -438 0 c-379 0 -439 -2 -459 -16z"/>
<path d="M1100 1320 c-11 -11 -20 -33 -20 -50 0 -17 9 -39 20 -50 19 -19 33
-20 255 -20 222 0 236 1 255 20 27 27 26 71 -3 98 -23 21 -31 22 -255 22 -219
0 -233 -1 -252 -20z"/>
<path d="M460 987 c-81 -42 -24 -172 61 -137 16 7 34 21 39 31 36 66 -34 141
-100 106z"/>
<path d="M692 977 c-26 -27 -28 -64 -6 -95 l15 -22 994 0 994 0 15 22 c24 34
20 73 -10 97 -27 21 -30 21 -1004 21 l-977 0 -21 -23z"/>
</g>
</svg>
